<svg width="0" height="0" class="hidden">
  <symbol viewBox="0 0 20 20" fill="none" xmlns="http://www.w3.org/2000/svg" id="mail_gradient">
    <path fill-rule="evenodd" clip-rule="evenodd" d="M1.01 4a1 1 0 0 1 1-1H18a1 1 0 0 1 1 1v11.324a2 2 0 0 1-2 2H3a2 2 0 0 1-2-2v-11c0-.047.003-.094.01-.14V4zM3 6.224v9.1h14v-9.1l-4.879 4.879a3 3 0 0 1-4.242 0L3 6.223zm1.572-1.256h10.856l-4.72 4.72a1 1 0 0 1-1.415 0l-4.72-4.72z"
      fill="url(#paint0_linear)"></path>
    <defs>
      <linearGradient id="paint0_linear" x1="-7" y1="-2" x2="26" y2="26" gradientUnits="userSpaceOnUse">
        <stop stop-color="#0BF"></stop>
        <stop offset="1" stop-color="#00DA87"></stop>
      </linearGradient>
    </defs>
  </symbol>
  <symbol viewBox="0 0 24 24" fill="none" xmlns="http://www.w3.org/2000/svg" id="phone">
    <path d="M22 12A10.002 10.002 0 0 0 12 2v2a8.003 8.003 0 0 1 7.391 4.938A8 8 0 0 1 20 12h2z" fill="url(#paint0_linear)"></path>
    <path d="M2 10V5a1 1 0 0 1 1-1h5a1 1 0 0 1 1 1v4a1 1 0 0 1-1 1H6a8 8 0 0 0 8 8v-2a1 1 0 0 1 1-1h4a1 1 0 0 1 1 1v5a1 1 0 0 1-1 1h-5C7.373 22 2 16.627 2 10z" fill="url(#paint1_linear)"></path>
    <path d="M17.543 9.704A5.99 5.99 0 0 1 18 12h-1.8A4.199 4.199 0 0 0 12 7.8V6a6 6 0 0 1 5.543 3.704z" fill="url(#paint2_linear)"></path>
    <defs>
      <linearGradient id="paint0_linear" x1="-3" y1="2" x2="22" y2="22" gradientUnits="userSpaceOnUse">
        <stop stop-color="#0BF"></stop>
        <stop offset="1" stop-color="#00DA87"></stop>
      </linearGradient>
      <linearGradient id="paint1_linear" x1="-3" y1="2" x2="22" y2="22" gradientUnits="userSpaceOnUse">
        <stop stop-color="#0BF"></stop>
        <stop offset="1" stop-color="#00DA87"></stop>
      </linearGradient>
      <linearGradient id="paint2_linear" x1="-3" y1="2" x2="22" y2="22" gradientUnits="userSpaceOnUse">
        <stop stop-color="#0BF"></stop>
        <stop offset="1" stop-color="#00DA87"></stop>
      </linearGradient>
    </defs>
  </symbol>
  <symbol viewBox="0 0 24 24" fill="none" xmlns="http://www.w3.org/2000/svg" id="profile">
    <path fill-rule="evenodd" clip-rule="evenodd" d="M16 9a4 4 0 1 1-8 0 4 4 0 0 1 8 0zm-2 0a2 2 0 1 1-4 0 2 2 0 0 1 4 0z" fill="url(#paint0_linear)"></path>
    <path fill-rule="evenodd" clip-rule="evenodd" d="M12 1C5.925 1 1 5.925 1 12s4.925 11 11 11 11-4.925 11-11S18.075 1 12 1zM3 12c0 2.09.713 4.014 1.908 5.542A8.986 8.986 0 0 1 12.065 14a8.984 8.984 0 0 1 7.092 3.458A9 9 0 1 0 3 12zm9 9a8.963 8.963 0 0 1-5.672-2.012A6.992 6.992 0 0 1 12.065 16a6.991 6.991 0 0 1 5.689 2.92A8.964 8.964 0 0 1 12 21z"
      fill="url(#paint1_linear)"></path>
    <defs>
      <linearGradient id="paint0_linear" x1="-5" y1="1" x2="23" y2="30" gradientUnits="userSpaceOnUse">
        <stop stop-color="#0BF"></stop>
        <stop offset="1" stop-color="#00DA87"></stop>
      </linearGradient>
      <linearGradient id="paint1_linear" x1="-5" y1="1" x2="23" y2="30" gradientUnits="userSpaceOnUse">
        <stop stop-color="#0BF"></stop>
        <stop offset="1" stop-color="#00DA87"></stop>
      </linearGradient>
    </defs>
  </symbol>
  <symbol viewBox="0 0 24 24" fill="none" xmlns="http://www.w3.org/2000/svg" id="web">
    <path fill-rule="evenodd" clip-rule="evenodd" d="M12 21a9 9 0 1 0 0-18 9 9 0 0 0 0 18zm2.806-2.585a7.004 7.004 0 0 0 4.175-5.89c-.823.449-1.861.817-3.044 1.073-.149 1.87-.554 3.54-1.131 4.817zM9.195 5.585a7.016 7.016 0 0 0-3.973 4.659c.232.22.626.49 1.226.757.45.2.973.379 1.557.529.054-2.324.498-4.415 1.19-5.945zm.906 8.326c.156 1.457.484 2.71.898 3.64.294.662.593 1.074.823 1.293.082.078.14.12.178.14a.983.983 0 0 0 .178-.14c.23-.22.529-.63.823-1.292.414-.932.742-2.184.898-3.641a20.034 20.034 0 0 1-3.798 0zm-2.038-.313c.149 1.87.554 3.54 1.131 4.817a7.004 7.004 0 0 1-4.175-5.89c.823.449 1.861.817 3.044 1.073zM14 11.89a18.153 18.153 0 0 1-4 0c.014-2.226.423-4.145 1-5.442.293-.661.592-1.073.822-1.292a.988.988 0 0 1 .178-.14.988.988 0 0 1 .178.14c.23.22.529.63.823 1.292.576 1.297.986 3.216.999 5.442zm1.995-.36c-.053-2.324-.498-4.415-1.19-5.945a7.016 7.016 0 0 1 3.973 4.659c-.232.22-.626.49-1.226.757-.45.2-.973.379-1.557.529z"
      fill="url(#paint0_linear)"></path>
    <defs>
      <linearGradient id="paint0_linear" x1="-4" y1="3" x2="21" y2="26" gradientUnits="userSpaceOnUse">
        <stop stop-color="#0BF"></stop>
        <stop offset="1" stop-color="#00DA87"></stop>
      </linearGradient>
    </defs>
  </symbol>
</svg>