<svg width="0" height="0" class="hidden">
  <symbol viewBox="0 0 26 23" fill="none" xmlns="http://www.w3.org/2000/svg" id="bem">
    <path d="M0 3.547h6.078v1.91H0v-1.91zM0 0h6.078v1.91H0V0zm10.904 7.066H0v1.91h10.495c1.15 0 3.83.027 4.827 1.746V9.658c-.485-1.692-1.915-2.592-4.418-2.592zm.026 3.547H0v1.91h10.495c2.554 0 4.163.109 4.827.49v-.845c-.51-1.337-2.656-1.555-4.392-1.555zm-.026 9.003H0v-1.91h10.495c1.15 0 3.83-.027 4.827-1.746v1.064c-.485 1.692-1.915 2.592-4.418 2.592zm.026-3.547H0v-1.91h10.495c2.554 0 4.163-.109 4.827-.49v.845c-.51 1.337-2.656 1.555-4.392 1.555zm7.048 6.848h8.018v-1.173h-7.789c-.69 0-2.323-.027-2.91-1.037v.655c.28 1.01 1.148 1.555 2.68 1.555zm-.026-2.155h8.019v-1.173h-7.764c-1.557 0-2.528-.055-2.91-.3v.518c.306.819 1.608.955 2.655.955z"
      fill="url(#paint0_linear)"></path>
    <defs>
      <linearGradient id="paint0_linear" x2="22.828" y2="25.806" gradientUnits="userSpaceOnUse">
        <stop stop-color="#27CBFF"></stop>
        <stop offset="1" stop-color="#6FCF97"></stop>
      </linearGradient>
    </defs>
  </symbol>
  <symbol viewBox="0 0 30 30" fill="none" xmlns="http://www.w3.org/2000/svg" id="bootstrap">
    <path d="M.688 2.688v26h26v-26h-26zM3.05 5.05h21.273v21.273H3.05V5.05zm4.727 3.546v14.17c7.009 0 8.41.094 9.723-.296.768-.236 2.871-.992 2.871-3.651 0-1.182-.354-3.18-2.67-3.677v-.035h-.437c1.182-.532 1.925-1.535 1.925-3.012 0-.378.107-3.5-4.03-3.5H7.778zm2.364 2.363h4.727c1.784 0 1.958 1.009 1.958 1.761 0 1.837-1.922 1.785-1.958 1.785h-4.727V10.96zm0 5.91h5.625c2.2 0 2.242 1.39 2.242 1.749 0 1.844-1.905 1.796-2.136 1.796h-5.731v-3.546z"
      fill="url(#paint0_linear)"></path>
    <defs>
      <linearGradient id="paint0_linear" x1=".829" y1="2.829" x2="26.546" y2="28.546" gradientUnits="userSpaceOnUse">
        <stop stop-color="#27CBFF"></stop>
        <stop offset="1" stop-color="#6FCF97"></stop>
      </linearGradient>
    </defs>
  </symbol>
  <symbol viewBox="0 0 20 20" fill="none" xmlns="http://www.w3.org/2000/svg" id="chevron-right">
    <path d="M6 4.414L7.414 3l7.071 7.071-7.07 7.071L6 15.728l5.657-5.657L6 4.414z" fill="#fff"></path>
  </symbol>
  <symbol viewBox="0 0 30 30" fill="none" xmlns="http://www.w3.org/2000/svg" id="css3">
    <path fill-rule="evenodd" clip-rule="evenodd" d="M22.682 25.758L12.8 28.6l-9.883-2.843L.8 1.6h24l-2.118 24.157zm.576-22.737H2.341l1.897 21.637 8.562 2.465 8.561-2.465 1.897-21.637zM7.012 17.23h2.824l.069 1.776L12.8 20l2.895-.994.21-3.197h-6.21l-.143-2.842h6.496l.21-2.842h-9.74l-.212-2.842h12.918l-.352 5.684-.497 8.171-5.575 1.849-5.576-1.849-.212-3.908z"
      fill="url(#paint0_linear)"></path>
    <defs>
      <linearGradient id="paint0_linear" x1=".8" y1="1.6" x2="24.975" y2="28.442" gradientUnits="userSpaceOnUse">
        <stop stop-color="#27CBFF"></stop>
        <stop offset="1" stop-color="#6FCF97"></stop>
      </linearGradient>
    </defs>
  </symbol>
  <symbol viewBox="0 0 30 30" fill="none" xmlns="http://www.w3.org/2000/svg" id="git">
    <path d="M15 2.4c.34 0 .659.131.898.373l11.33 11.33c.496.494.496 1.3 0 1.795l-11.33 11.33A1.26 1.26 0 0 1 15 27.6c-.34 0-.658-.131-.898-.373l-11.33-11.33a1.268 1.268 0 0 1 0-1.795l7.393-7.392 1.364 1.364a3.587 3.587 0 0 0 .926 3.472c.22.22.471.41.745.567v5.777A3.594 3.594 0 0 0 11.4 21c0 1.985 1.615 3.6 3.6 3.6s3.6-1.615 3.6-3.6c0-1.305-.708-2.48-1.8-3.11v-4.545l.73.73a3.587 3.587 0 0 0 .925 3.47A3.578 3.578 0 0 0 21 18.6c.961 0 1.866-.375 2.546-1.055a3.603 3.603 0 0 0 0-5.09 3.556 3.556 0 0 0-2.534-1.05c-.317 0-.633.042-.938.124l-1.603-1.603a3.588 3.588 0 0 0-4.397-4.397L12.71 4.165l1.392-1.392c.24-.242.558-.373.898-.373zm0-1.2a2.46 2.46 0 0 0-1.746.724l-2.24 2.241 2.772 2.773a2.44 2.44 0 0 1 1.226-.333c.61 0 1.219.232 1.685.698.79.79.905 1.99.363 2.909l2.726 2.726c.377-.22.802-.333 1.226-.333.61 0 1.219.232 1.685.698a2.4 2.4 0 1 1-3.394 3.394 2.396 2.396 0 0 1-.363-2.91l-2.726-2.727c-.194.115-.4.2-.614.253v7.372A2.393 2.393 0 0 1 17.4 21a2.4 2.4 0 0 1-4.8 0c0-1.118.767-2.048 1.8-2.315v-7.371a2.373 2.373 0 0 1-1.097-.617 2.393 2.393 0 0 1-.363-2.909l-2.775-2.775-8.24 8.241a2.467 2.467 0 0 0 0 3.492l11.33 11.33c.48.483 1.112.724 1.745.724s1.266-.241 1.746-.724l11.33-11.33a2.467 2.467 0 0 0 0-3.492l-11.33-11.33A2.456 2.456 0 0 0 15 1.2z"
      fill="url(#paint0_linear)"></path>
    <defs>
      <linearGradient id="paint0_linear" x1="1.2" y1="1.2" x2="28.8" y2="28.8" gradientUnits="userSpaceOnUse">
        <stop stop-color="#27CBFF"></stop>
        <stop offset="1" stop-color="#6FCF97"></stop>
      </linearGradient>
    </defs>
  </symbol>
  <symbol viewBox="0 0 30 30" fill="none" xmlns="http://www.w3.org/2000/svg" id="html5">
    <path d="M3.169 1.2a.6.6 0 0 0-.487.656L4.8 25.52a.6.6 0 0 0 .432.506l9.6 2.756a.59.59 0 0 0 .337 0l9.6-2.756a.598.598 0 0 0 .431-.506l2.12-23.664a.599.599 0 0 0-.6-.656H3.169zm.769 1.2h22.125l-2.006 22.594L15 27.563l-9.056-2.57L3.938 2.4zm3.581 3.638a.6.6 0 0 0-.487.656l.806 8.869a.6.6 0 0 0 .581.562H18l-.262 2.756-2.719.582-2.756-.582-.094-.975a.6.6 0 0 0-.6-.562H8.644a.599.599 0 0 0-.6.656l.338 3.675a.6.6 0 0 0 .412.525l5.963 1.819.075.019c.11.032.227.032.337 0l6.037-1.838a.597.597 0 0 0 .432-.525l.787-9.019a.596.596 0 0 0-.581-.656H11.625l-.15-1.856h10.632a.598.598 0 0 0 .6-.544l.262-2.906a.599.599 0 0 0-.6-.656H7.632a.452.452 0 0 0-.113 0zm.769 1.2h13.425l-.15 1.706H10.819a.6.6 0 0 0-.6.656l.281 3.056a.6.6 0 0 0 .582.544h10.106l-.713 7.969L15 22.819l-5.475-1.65-.225-2.625h1.725l.075.881a.6.6 0 0 0 .469.544l3.337.694a.61.61 0 0 0 .244 0l3.281-.694a.6.6 0 0 0 .47-.544l.355-3.862a.603.603 0 0 0-.6-.638H8.964l-.675-7.687z"
      fill="url(#paint0_linear)"></path>
    <defs>
      <linearGradient id="paint0_linear" x1="2.4" y1="1.2" x2="27.6" y2="28.8" gradientUnits="userSpaceOnUse">
        <stop stop-color="#27CBFF"></stop>
        <stop offset="1" stop-color="#6FCF97"></stop>
      </linearGradient>
    </defs>
  </symbol>
  <symbol viewBox="0 0 30 29" fill="none" xmlns="http://www.w3.org/2000/svg" id="IE">
    <g clip-path="url(#clip0)">
      <path d="M24 0a6.497 6.497 0 0 0-.506.037c-1.348.14-2.843.64-4.444 1.45-1.357.686-2.79 1.604-4.238 2.7-1.79.007-4.31.315-6.843 1.795L7.949 6c-5.158 3.178-5.026 8.826-5.024 8.88v.019c.002.918.082 1.779.244 2.574a.566.566 0 0 0 .112.235 24.535 24.535 0 0 0-1.219 2.737c-.6 1.645-.911 3.15-.862 4.459.05 1.31.471 2.458 1.369 3.208 1.174.986 2.897 1.092 4.78.616 1.871-.47 3.976-1.533 6.17-3.045.42.034.839.055 1.256.055 8.981 0 11.962-7.74 11.962-7.74a.565.565 0 0 0-.07-.53.604.604 0 0 0-.492-.249h-7.65a.597.597 0 0 0-.581.453s-.113.485-.507.979c-.393.494-1.017.96-2.212.96-1.678 0-2.29-.733-2.644-1.54-.237-.542-.192-.798-.206-1.106h13.912a.59.59 0 0 0 .6-.525c.141-1.956-.082-3.693-.6-5.202a.538.538 0 0 0 .075-.127c1.111-2.2 1.793-4.244 1.95-6 .157-1.755-.23-3.285-1.35-4.223C26.177.231 25.148-.036 24 0zm.037 1.16c.928-.031 1.643.188 2.157.617.73.614 1.057 1.699.918 3.244-.12 1.334-.625 2.97-1.443 4.749a9.145 9.145 0 0 0-.45-.743c.6-1.344.977-2.567 1.068-3.625.099-1.129-.13-2.146-.88-2.774-.36-.3-.798-.47-1.276-.543-.478-.073-.998-.034-1.537.072-1.08.215-2.288.739-3.6 1.505-2.625 1.531-5.649 4.055-8.513 7.25-2.864 3.194-5.01 6.443-6.206 9.17-.598 1.365-.966 2.597-1.031 3.662-.066 1.065.182 2.028.9 2.628.743.623 1.779.698 2.906.453 1.106-.24 2.35-.808 3.694-1.613.325.088.663.17.993.236-1.706 1.065-3.318 1.81-4.687 2.157-1.674.421-2.927.262-3.694-.381-.586-.49-.916-1.257-.956-2.356-.04-1.099.223-2.49.787-4.042 1.13-3.102 3.457-6.85 6.675-10.44 3.218-3.591 6.734-6.344 9.75-7.866 1.507-.762 2.88-1.206 4.013-1.323.14-.014.279-.032.412-.037zm-.6 2.048c.544-.025.926.096 1.182.309.356.296.548.87.468 1.794-.063.727-.29 1.629-.693 2.646-1.32-1.5-3.078-2.535-5.082-3.135.099-.06.204-.125.3-.182 1.236-.72 2.351-1.185 3.225-1.36a4.16 4.16 0 0 1 .6-.072zm-10.2 2.248a43.45 43.45 0 0 0-4.293 4.169c-1.92 2.143-3.516 4.34-4.763 6.452-.035-.38-.056-.782-.056-1.196v-.018s-.155-5.03 4.462-7.885c.005-.002.014.003.02 0 1.626-.947 3.238-1.354 4.63-1.522zm4.782.217c2.374.515 4.37 1.627 5.737 3.354.082.104.166.217.244.326a.596.596 0 0 0 .094.145c1.092 1.602 1.685 3.69 1.593 6.307H11.681c-.323 0-.59.25-.6.562 0 0-.087 1.06.394 2.157.48 1.097 1.655 2.247 3.75 2.247 1.556 0 2.587-.706 3.15-1.413.387-.485.42-.716.506-.979h6.356c-.836 1.681-3.668 6.199-10.462 6.199-3.61 0-7.308-1.3-9.244-4.386 1.137-2.459 3.124-5.413 5.719-8.338-.204.675-.188 1.214-.188 1.214.01.313.277.562.6.562H18.6a.592.592 0 0 0 .6-.544s.047-.956-.431-1.92c-.478-.966-1.59-1.958-3.544-1.958a4.92 4.92 0 0 0-1.763.308c1.557-1.527 3.106-2.825 4.557-3.843zm-2.794 4.695c1.57 0 2.142.634 2.475 1.305.194.392.14.532.169.797h-5.475c.032-.263 0-.39.206-.78.356-.67.984-1.322 2.625-1.322zM4.969 21.515c1.125 1.47 2.627 2.508 4.293 3.19-.935.491-1.774.827-2.475.978-.92.2-1.523.096-1.875-.199-.34-.285-.522-.807-.468-1.668.04-.636.208-1.415.525-2.301z"
        fill="url(#paint0_linear)"></path>
    </g>
    <defs>
      <linearGradient id="paint0_linear" x1="1.2" x2="27.192" y2="29.877" gradientUnits="userSpaceOnUse">
        <stop stop-color="#27CBFF"></stop>
        <stop offset="1" stop-color="#6FCF97"></stop>
      </linearGradient>
      <clipPath id="clip0">
        <path fill="#fff" d="M0 0h30v29H0z"></path>
      </clipPath>
    </defs>
  </symbol>
  <symbol viewBox="0 0 30 30" fill="none" xmlns="http://www.w3.org/2000/svg" id="JS">
    <path d="M4 2.4c-.876 0-1.6.725-1.6 1.601V26c0 .876.724 1.6 1.6 1.6h22c.876 0 1.6-.722 1.6-1.6V4c0-.876-.722-1.6-1.6-1.6H4zm0 1.2h22a.4.4 0 0 1 .4.401V26a.4.4 0 0 1-.4.4H4a.4.4 0 0 1-.4-.4V4a.4.4 0 0 1 .4-.4zm9.8 10.2v7.545c0 1.158-.438 1.455-1.2 1.455-.797 0-1.35-.497-1.716-1.141L9 22.8c.546 1.156 1.884 2.4 3.74 2.4 2.054 0 3.46-1.092 3.46-3.49V13.8h-2.4zm7.472 0c-2.044 0-3.354 1.308-3.354 3.026 0 1.863 1.1 2.745 2.751 3.448l.572.246c1.043.457 1.559.736 1.559 1.521 0 .654-.497 1.127-1.446 1.127-1.13 0-1.664-.766-2.154-1.568l-1.8 1.2c.673 1.33 1.88 2.4 4.005 2.4 2.175 0 3.795-1.13 3.795-3.19 0-1.912-1.097-2.763-3.045-3.597l-.572-.244c-.981-.426-1.408-.703-1.408-1.39 0-.555.427-.982 1.097-.982.658 0 1.08.28 1.472.982l1.783-1.143c-.752-1.33-1.8-1.836-3.255-1.836z"
      fill="url(#paint0_linear)"></path>
    <defs>
      <linearGradient id="paint0_linear" x1="2.4" y1="2.4" x2="27.6" y2="27.6" gradientUnits="userSpaceOnUse">
        <stop stop-color="#27CBFF"></stop>
        <stop offset="1" stop-color="#6FCF97"></stop>
      </linearGradient>
    </defs>
  </symbol>
  <symbol viewBox="0 0 20 20" fill="none" xmlns="http://www.w3.org/2000/svg" id="mail">
    <path fill-rule="evenodd" clip-rule="evenodd" d="M1.01 4a1 1 0 0 1 1-1H18a1 1 0 0 1 1 1v11.324a2 2 0 0 1-2 2H3a2 2 0 0 1-2-2v-11c0-.047.003-.094.01-.14V4zM3 6.224v9.1h14v-9.1l-4.879 4.879a3 3 0 0 1-4.242 0L3 6.223zm1.572-1.256h10.856l-4.72 4.72a1 1 0 0 1-1.415 0l-4.72-4.72z"
      fill="#fff"></path>
  </symbol>
  <symbol viewBox="0 0 20 20" fill="none" xmlns="http://www.w3.org/2000/svg" id="mail_gradient">
    <path fill-rule="evenodd" clip-rule="evenodd" d="M1.01 4a1 1 0 0 1 1-1H18a1 1 0 0 1 1 1v11.324a2 2 0 0 1-2 2H3a2 2 0 0 1-2-2v-11c0-.047.003-.094.01-.14V4zM3 6.224v9.1h14v-9.1l-4.879 4.879a3 3 0 0 1-4.242 0L3 6.223zm1.572-1.256h10.856l-4.72 4.72a1 1 0 0 1-1.415 0l-4.72-4.72z"
      fill="url(#paint0_linear)"></path>
    <defs>
      <linearGradient id="paint0_linear" x1="-7" y1="-2" x2="26" y2="26" gradientUnits="userSpaceOnUse">
        <stop stop-color="#0BF"></stop>
        <stop offset="1" stop-color="#00DA87"></stop>
      </linearGradient>
    </defs>
  </symbol>
  <symbol viewBox="0 0 24 24" fill="none" xmlns="http://www.w3.org/2000/svg" id="phone">
    <path d="M22 12A10.002 10.002 0 0 0 12 2v2a8.003 8.003 0 0 1 7.391 4.938A8 8 0 0 1 20 12h2z" fill="url(#paint0_linear)"></path>
    <path d="M2 10V5a1 1 0 0 1 1-1h5a1 1 0 0 1 1 1v4a1 1 0 0 1-1 1H6a8 8 0 0 0 8 8v-2a1 1 0 0 1 1-1h4a1 1 0 0 1 1 1v5a1 1 0 0 1-1 1h-5C7.373 22 2 16.627 2 10z" fill="url(#paint1_linear)"></path>
    <path d="M17.543 9.704A5.99 5.99 0 0 1 18 12h-1.8A4.199 4.199 0 0 0 12 7.8V6a6 6 0 0 1 5.543 3.704z" fill="url(#paint2_linear)"></path>
    <defs>
      <linearGradient id="paint0_linear" x1="-3" y1="2" x2="22" y2="22" gradientUnits="userSpaceOnUse">
        <stop stop-color="#0BF"></stop>
        <stop offset="1" stop-color="#00DA87"></stop>
      </linearGradient>
      <linearGradient id="paint1_linear" x1="-3" y1="2" x2="22" y2="22" gradientUnits="userSpaceOnUse">
        <stop stop-color="#0BF"></stop>
        <stop offset="1" stop-color="#00DA87"></stop>
      </linearGradient>
      <linearGradient id="paint2_linear" x1="-3" y1="2" x2="22" y2="22" gradientUnits="userSpaceOnUse">
        <stop stop-color="#0BF"></stop>
        <stop offset="1" stop-color="#00DA87"></stop>
      </linearGradient>
    </defs>
  </symbol>
  <symbol viewBox="0 0 30 30" fill="none" xmlns="http://www.w3.org/2000/svg" id="photoshop">
    <path fill-rule="evenodd" clip-rule="evenodd" d="M5.708 2h18.834c2.6 0 4.708 1.959 4.708 4.375v17.5c0 2.416-2.108 4.375-4.708 4.375H5.708C3.108 28.25 1 26.291 1 23.875v-17.5C1 3.959 3.108 2 5.708 2zm0 24.792h18.834c1.733 0 3.139-1.306 3.139-2.917v-17.5c0-1.61-1.406-2.917-3.14-2.917H5.709c-1.733 0-3.139 1.306-3.139 2.917v17.5c0 1.61 1.406 2.917 3.14 2.917z"
      fill="url(#paint0_linear)"></path>
    <path d="M7.676 8.833c0-.077.06-.142.143-.15.313-.033 1.19-.099 3.058-.099 2.815 0 4.787 1.038 4.787 3.877 0 2.56-1.876 4.064-4.903 4.064h-.955v4.289c0 .071-.062.13-.14.13h-1.85c-.077 0-.14-.059-.14-.13V8.834zm2.13 5.888s.932.006 1.142.006c1.729 0 2.515-.952 2.515-2.228 0-1.195-.764-2.127-2.362-2.127-.658 0-1.294.035-1.294.035v4.314z"
      fill="url(#paint1_linear)"></path>
    <path d="M16.817 18.748c0-.069.08-.112.143-.074.395.246 1.198.666 2.441.666.811 0 1.325-.324 1.325-.854 0-.586-.867-1.01-1.583-1.372-.712-.358-2.31-.935-2.31-2.79 0-1.644 1.414-2.636 3.34-2.636.737 0 1.55.107 2.1.293a.21.21 0 0 1 .145.202v1.67c0 .069-.077.113-.14.075-.344-.209-1.104-.529-2.149-.529-.87 0-1.253.394-1.253.795 0 .703 1.008.997 1.912 1.49 1.41.729 2.063 1.441 2.063 2.557 0 1.826-1.465 2.852-3.45 2.852-1.024 0-1.988-.208-2.48-.487a.205.205 0 0 1-.103-.183l-.001-1.675z"
      fill="url(#paint2_linear)"></path>
    <defs>
      <linearGradient id="paint0_linear" x1="1.314" y1="2.292" x2="26.912" y2="29.84" gradientUnits="userSpaceOnUse">
        <stop stop-color="#27CBFF"></stop>
        <stop offset="1" stop-color="#6FCF97"></stop>
      </linearGradient>
      <linearGradient id="paint1_linear" x1="3.197" y1="5.208" x2="24.184" y2="27.167" gradientUnits="userSpaceOnUse">
        <stop stop-color="#27CBFF"></stop>
        <stop offset="1" stop-color="#6FCF97"></stop>
      </linearGradient>
      <linearGradient id="paint2_linear" x1="3.825" y1="5.208" x2="24.145" y2="27.701" gradientUnits="userSpaceOnUse">
        <stop stop-color="#27CBFF"></stop>
        <stop offset="1" stop-color="#6FCF97"></stop>
      </linearGradient>
    </defs>
  </symbol>
  <symbol viewBox="0 0 24 24" fill="none" xmlns="http://www.w3.org/2000/svg" id="profile">
    <path fill-rule="evenodd" clip-rule="evenodd" d="M16 9a4 4 0 1 1-8 0 4 4 0 0 1 8 0zm-2 0a2 2 0 1 1-4 0 2 2 0 0 1 4 0z" fill="url(#paint0_linear)"></path>
    <path fill-rule="evenodd" clip-rule="evenodd" d="M12 1C5.925 1 1 5.925 1 12s4.925 11 11 11 11-4.925 11-11S18.075 1 12 1zM3 12c0 2.09.713 4.014 1.908 5.542A8.986 8.986 0 0 1 12.065 14a8.984 8.984 0 0 1 7.092 3.458A9 9 0 1 0 3 12zm9 9a8.963 8.963 0 0 1-5.672-2.012A6.992 6.992 0 0 1 12.065 16a6.991 6.991 0 0 1 5.689 2.92A8.964 8.964 0 0 1 12 21z"
      fill="url(#paint1_linear)"></path>
    <defs>
      <linearGradient id="paint0_linear" x1="-5" y1="1" x2="23" y2="30" gradientUnits="userSpaceOnUse">
        <stop stop-color="#0BF"></stop>
        <stop offset="1" stop-color="#00DA87"></stop>
      </linearGradient>
      <linearGradient id="paint1_linear" x1="-5" y1="1" x2="23" y2="30" gradientUnits="userSpaceOnUse">
        <stop stop-color="#0BF"></stop>
        <stop offset="1" stop-color="#00DA87"></stop>
      </linearGradient>
    </defs>
  </symbol>
  <symbol viewBox="0 0 30 30" fill="none" xmlns="http://www.w3.org/2000/svg" id="react">
    <path fill-rule="evenodd" clip-rule="evenodd" d="M20.733 2.39a4.26 4.26 0 0 0-1.448.226c-.982.318-2.011.938-3.067 1.797-.414.337-.832.722-1.25 1.13a18.96 18.96 0 0 0-1.224-1.102c-1.055-.858-2.081-1.478-3.061-1.796-.98-.318-1.954-.328-2.755.135-.8.462-1.28 1.31-1.494 2.318-.215 1.007-.191 2.206.024 3.55.075.466.182.955.304 1.454-.458.138-.902.284-1.314.445-1.243.485-2.272 1.066-3.02 1.758-.75.69-1.234 1.53-1.234 2.451s.484 1.76 1.233 2.45c.75.692 1.778 1.274 3.021 1.76.44.172.918.327 1.41.473-.177.662-.32 1.304-.418 1.913-.216 1.343-.24 2.543-.024 3.553.215 1.01.694 1.862 1.499 2.327.805.465 1.784.453 2.766.135.982-.319 2.01-.938 3.065-1.797.41-.333.825-.714 1.24-1.118.417.407.834.789 1.246 1.124 1.055.858 2.082 1.478 3.062 1.796.98.317 1.954.327 2.755-.135.8-.462 1.278-1.311 1.493-2.318.215-1.008.191-2.206-.025-3.549a19.314 19.314 0 0 0-.42-1.918c.51-.15 1.001-.31 1.455-.486 1.243-.486 2.272-1.068 3.021-1.76.75-.69 1.233-1.528 1.233-2.45 0-.921-.484-1.76-1.233-2.451-.749-.692-1.778-1.273-3.02-1.758a18.26 18.26 0 0 0-1.334-.451c.122-.502.231-.995.307-1.464.215-1.344.238-2.545.023-3.554-.215-1.01-.695-1.862-1.5-2.326a2.787 2.787 0 0 0-1.316-.361zm-.055 1.222c.293.008.544.078.758.201.429.248.745.729.914 1.521.17.793.163 1.863-.036 3.105-.068.425-.168.875-.28 1.337a27.84 27.84 0 0 0-4.006-.644 28.91 28.91 0 0 0-2.204-2.71c.394-.385.786-.745 1.168-1.056.976-.793 1.9-1.333 2.67-1.583.385-.125.722-.18 1.016-.171zm-11.386.003c.295-.008.633.046 1.02.171.772.25 1.697.79 2.674 1.585.374.304.757.658 1.143 1.033a28.98 28.98 0 0 0-2.22 2.734 27.731 27.731 0 0 0-3.988.648 17.325 17.325 0 0 1-.279-1.33c-.2-1.242-.205-2.313-.035-3.108.17-.794.489-1.28.92-1.529a1.59 1.59 0 0 1 .765-.204zm5.694 3.67a27 27 0 0 1 1.463 1.74A34.71 34.71 0 0 0 15 8.996c-.5 0-.99.011-1.476.032.485-.627.973-1.21 1.462-1.741zm.014 2.92c.816 0 1.611.034 2.385.091a34.13 34.13 0 0 1 1.548 2.434c.436.754.83 1.508 1.188 2.251a34.341 34.341 0 0 1-1.204 2.282 34.327 34.327 0 0 1-1.207 1.929 32.56 32.56 0 0 1-5.481-.006 34.278 34.278 0 0 1-1.187-1.9 34.62 34.62 0 0 1-1.202-2.277c.364-.756.764-1.522 1.207-2.29a34.029 34.029 0 0 1 1.541-2.42A32.571 32.571 0 0 1 15 10.205zm3.93.241c.989.123 1.917.295 2.782.5-.257.841-.573 1.72-.956 2.625-.248-.479-.505-.96-.784-1.441a36.135 36.135 0 0 0-1.043-1.684zm-7.924.01a37.344 37.344 0 0 0-1.02 1.65c-.28.489-.543.976-.795 1.46-.38-.9-.693-1.773-.948-2.609a25.775 25.775 0 0 1 2.763-.502zm11.893.81c.425.128.836.262 1.212.41 1.147.447 2.053.977 2.64 1.52.588.542.843 1.059.843 1.56 0 .502-.255 1.019-.842 1.561-.588.542-1.494 1.072-2.64 1.52-.42.164-.88.312-1.357.452a29.738 29.738 0 0 0-1.295-3.28 29.06 29.06 0 0 0 1.439-3.744zm-15.817.005c.357 1.184.833 2.43 1.42 3.707A29.715 29.715 0 0 0 7.2 18.276a16.7 16.7 0 0 1-1.311-.439c-1.146-.448-2.053-.978-2.64-1.52-.588-.542-.843-1.06-.843-1.56 0-.502.255-1.02.843-1.562.587-.542 1.494-1.072 2.64-1.52.37-.145.775-.277 1.193-.404zM15 12c-1.65 0-3 1.35-3 3s1.35 3 3 3 3-1.35 3-3-1.35-3-3-3zm-5.795 4.42c.253.487.515.976.798 1.466.222.384.448.757.678 1.124a25.649 25.649 0 0 1-2.291-.42c.228-.701.502-1.428.815-2.17zm11.567 0c.314.743.588 1.472.818 2.174-.722.167-1.49.308-2.298.42.232-.372.462-.75.686-1.138.281-.487.543-.973.794-1.457zM8.044 19.753c1.086.258 2.263.455 3.51.584a29.582 29.582 0 0 0 2.575 3.234c-.39.381-.777.739-1.156 1.047-.976.793-1.9 1.332-2.67 1.582-.772.25-1.347.217-1.775-.03-.428-.248-.744-.73-.913-1.522-.169-.792-.164-1.861.035-3.103.09-.563.226-1.166.394-1.792zm13.892.005c.17.63.306 1.235.397 1.801.2 1.243.204 2.313.035 3.108-.17.794-.487 1.28-.919 1.53-.432.25-1.013.283-1.786.032-.773-.25-1.698-.79-2.674-1.584-.382-.31-.772-.671-1.165-1.055a29.54 29.54 0 0 0 2.592-3.25 27.59 27.59 0 0 0 3.52-.582zm-8.816.702c.617.034 1.24.056 1.88.056.618 0 1.222-.021 1.819-.053a27.62 27.62 0 0 1-1.85 2.245 27.74 27.74 0 0 1-1.848-2.248z"
      fill="url(#paint0_linear)"></path>
    <defs>
      <linearGradient id="paint0_linear" x1="1.2" y1="2.4" x2="28.8" y2="27.6" gradientUnits="userSpaceOnUse">
        <stop stop-color="#27CBFF"></stop>
        <stop offset="1" stop-color="#6FCF97"></stop>
      </linearGradient>
    </defs>
  </symbol>
  <symbol viewBox="0 0 30 30" fill="none" xmlns="http://www.w3.org/2000/svg" id="redux">
    <path d="M14.4 1.2c-4.3 0-7.8 4.976-7.8 11.092 0 3.057.891 5.8 2.305 7.804A2.47 2.47 0 0 0 8.4 21.6c0 .583.191 1.175.601 1.636.41.461 1.05.764 1.8.764s1.388-.303 1.798-.764c.41-.461.601-1.053.601-1.636s-.191-1.175-.601-1.636c-.41-.461-1.049-.764-1.799-.764-.35 0-.67.07-.96.188-1.25-1.797-2.04-4.301-2.04-7.096 0-5.455 2.961-9.892 6.6-9.892 3.251 0 5.954 3.546 6.495 8.19.424.162.845.344 1.262.544C21.748 5.56 18.427 1.2 14.4 1.2zM13.2 9c-.75 0-1.389.303-1.799.764a2.451 2.451 0 0 0-.6 1.636c0 .583.19 1.175.6 1.636.41.461 1.05.764 1.8.764s1.388-.303 1.798-.764a2.35 2.35 0 0 0 .51-.985c2.146-.093 4.559.541 6.777 1.871 4.736 2.84 7.122 7.79 5.318 11.036-.645 1.158-1.77 1.98-3.252 2.377-2.078.557-4.629.215-7.064-.887-.352.283-.724.55-1.107.809 1.995 1.007 4.107 1.54 6.057 1.54.846 0 1.662-.099 2.424-.303 1.804-.483 3.185-1.504 3.99-2.954 2.115-3.805-.465-9.478-5.75-12.647-2.386-1.43-5.007-2.13-7.37-2.054A2.367 2.367 0 0 0 15 9.764C14.589 9.304 13.95 9 13.2 9zm0 1.2c.45 0 .711.147.901.361.19.214.3.523.3.84 0 .316-.11.624-.3.838-.19.214-.45.361-.9.361s-.712-.147-.902-.36A1.277 1.277 0 0 1 12 11.4c0-.316.109-.625.299-.839.19-.214.451-.36.901-.36zM5.497 14C1.32 17.262-.539 22.143 1.35 25.54c.806 1.45 2.186 2.47 3.99 2.953a9.387 9.387 0 0 0 2.425.305c2.28 0 4.783-.725 7.06-2.09 2.734-1.64 4.702-3.948 5.704-6.32.693-.034 1.285-.318 1.671-.752A2.45 2.45 0 0 0 22.801 18c0-.583-.191-1.174-.601-1.636-.41-.461-1.049-.764-1.799-.764s-1.389.303-1.799.764a2.451 2.451 0 0 0-.6 1.636c0 .584.19 1.175.6 1.636.2.224.455.409.75.541-.942 2.046-2.722 4.05-5.144 5.501-2.85 1.71-6.05 2.33-8.558 1.657-1.484-.397-2.607-1.219-3.251-2.377-1.525-2.744-.049-6.701 3.303-9.577-.087-.45-.154-.912-.204-1.382zM20.4 16.8c.45 0 .711.147.901.361.19.214.3.522.3.84 0 .316-.11.624-.3.838-.19.214-.45.361-.9.361s-.712-.147-.902-.36A1.277 1.277 0 0 1 19.2 18c0-.317.109-.625.299-.839.19-.214.451-.36.901-.36zm-9.6 3.6c.45 0 .711.147.901.361.19.214.3.523.3.84 0 .316-.11.625-.3.838-.19.214-.45.361-.9.361s-.712-.147-.902-.36a1.278 1.278 0 0 1-.299-.84c0-.317.109-.625.299-.839.19-.214.451-.36.901-.36z"
      fill="url(#paint0_linear)"></path>
    <defs>
      <linearGradient id="paint0_linear" x1="1.2" y1="1.2" x2="28.8" y2="28.8" gradientUnits="userSpaceOnUse">
        <stop stop-color="#27CBFF"></stop>
        <stop offset="1" stop-color="#6FCF97"></stop>
      </linearGradient>
    </defs>
  </symbol>
  <symbol viewBox="0 0 25 25" fill="none" xmlns="http://www.w3.org/2000/svg" id="responsive">
    <g clip-path="url(#clip0)">
      <path d="M3.125 1.738a.496.496 0 0 0-.368.17.614.614 0 0 0-.153.41c0 .153.055.3.153.409.098.109.23.17.368.17.138 0 .27-.061.369-.17a.614.614 0 0 0 .152-.41c0-.153-.055-.3-.152-.41a.496.496 0 0 0-.369-.169zm1.563 0a.496.496 0 0 0-.368.17.614.614 0 0 0-.153.41c0 .153.055.3.153.409.097.109.23.17.368.17.138 0 .27-.061.368-.17a.614.614 0 0 0 .153-.41c0-.153-.055-.3-.153-.41a.496.496 0 0 0-.368-.169zm1.562 0a.496.496 0 0 0-.368.17.614.614 0 0 0-.153.41c0 .153.055.3.153.409.098.109.23.17.368.17.138 0 .27-.061.369-.17a.614.614 0 0 0 .152-.41c0-.153-.055-.3-.152-.41a.496.496 0 0 0-.369-.169z"
        fill="#27CBFF"></path>
      <path d="M23.445 0H1.555C.697 0 0 .775 0 1.729v20.866c0 .954.697 1.73 1.555 1.73h21.89c.858 0 1.555-.776 1.555-1.73V1.73C25 .775 24.303 0 23.445 0zM1.555 23.166c-.283 0-.513-.256-.513-.57v-7.538h10.937v8.108H1.555zm22.403-.57c0 .314-.23.57-.513.57H13.021v-8.108h10.937v7.538zm0-8.696H1.042V4.633h22.916V13.9zm0-10.425H1.042V1.729c0-.315.23-.57.513-.57h21.89c.283 0 .513.255.513.57v1.746z"
        fill="url(#paint0_linear)"></path>
      <path d="M2.604 16.216h8.334v1.158H2.604v-1.158z" fill="url(#paint1_linear)"></path>
      <path d="M2.604 5.792h19.792V6.95H2.604V5.792z" fill="url(#paint2_linear)"></path>
      <path d="M2.604 8.108H18.23v1.159H2.604V8.108z" fill="url(#paint3_linear)"></path>
      <path d="M2.604 18.532h8.334v1.159H2.604v-1.159z" fill="url(#paint4_linear)"></path>
      <path d="M2.604 20.85h4.688v1.158H2.604V20.85z" fill="url(#paint5_linear)"></path>
    </g>
    <defs>
      <linearGradient id="paint0_linear" x2="27.261" y2="21.451" gradientUnits="userSpaceOnUse">
        <stop stop-color="#27CBFF"></stop>
        <stop offset="1" stop-color="#6FCF97"></stop>
      </linearGradient>
      <linearGradient id="paint1_linear" x1="2.604" y1="16.216" x2="14.636" y2="17.862" gradientUnits="userSpaceOnUse">
        <stop stop-color="#27CBFF"></stop>
        <stop offset="1" stop-color="#6FCF97"></stop>
      </linearGradient>
      <linearGradient id="paint2_linear" x1="2.604" y1="5.502" x2="31.258" y2="6.439" gradientUnits="userSpaceOnUse">
        <stop stop-color="#27CBFF"></stop>
        <stop offset="1" stop-color="#6FCF97"></stop>
      </linearGradient>
      <linearGradient id="paint3_linear" x1="2.604" y1="8.108" x2="33.116" y2="10.454" gradientUnits="userSpaceOnUse">
        <stop stop-color="#27CBFF"></stop>
        <stop offset="1" stop-color="#6FCF97"></stop>
      </linearGradient>
      <linearGradient id="paint4_linear" x1="2.604" y1="18.532" x2="13.858" y2="20.18" gradientUnits="userSpaceOnUse">
        <stop stop-color="#27CBFF"></stop>
        <stop offset="1" stop-color="#6FCF97"></stop>
      </linearGradient>
      <linearGradient id="paint5_linear" x1="2.604" y1="20.85" x2="11.528" y2="22.502" gradientUnits="userSpaceOnUse">
        <stop stop-color="#27CBFF"></stop>
        <stop offset="1" stop-color="#6FCF97"></stop>
      </linearGradient>
      <clipPath id="clip0">
        <path fill="#fff" d="M0 0h25v24.324H0z"></path>
      </clipPath>
    </defs>
  </symbol>
  <symbol viewBox="0 0 24 24" fill="none" xmlns="http://www.w3.org/2000/svg" id="web">
    <path fill-rule="evenodd" clip-rule="evenodd" d="M12 21a9 9 0 1 0 0-18 9 9 0 0 0 0 18zm2.806-2.585a7.004 7.004 0 0 0 4.175-5.89c-.823.449-1.861.817-3.044 1.073-.149 1.87-.554 3.54-1.131 4.817zM9.195 5.585a7.016 7.016 0 0 0-3.973 4.659c.232.22.626.49 1.226.757.45.2.973.379 1.557.529.054-2.324.498-4.415 1.19-5.945zm.906 8.326c.156 1.457.484 2.71.898 3.64.294.662.593 1.074.823 1.293.082.078.14.12.178.14a.983.983 0 0 0 .178-.14c.23-.22.529-.63.823-1.292.414-.932.742-2.184.898-3.641a20.034 20.034 0 0 1-3.798 0zm-2.038-.313c.149 1.87.554 3.54 1.131 4.817a7.004 7.004 0 0 1-4.175-5.89c.823.449 1.861.817 3.044 1.073zM14 11.89a18.153 18.153 0 0 1-4 0c.014-2.226.423-4.145 1-5.442.293-.661.592-1.073.822-1.292a.988.988 0 0 1 .178-.14.988.988 0 0 1 .178.14c.23.22.529.63.823 1.292.576 1.297.986 3.216.999 5.442zm1.995-.36c-.053-2.324-.498-4.415-1.19-5.945a7.016 7.016 0 0 1 3.973 4.659c-.232.22-.626.49-1.226.757-.45.2-.973.379-1.557.529z"
      fill="url(#paint0_linear)"></path>
    <defs>
      <linearGradient id="paint0_linear" x1="-4" y1="3" x2="21" y2="26" gradientUnits="userSpaceOnUse">
        <stop stop-color="#0BF"></stop>
        <stop offset="1" stop-color="#00DA87"></stop>
      </linearGradient>
    </defs>
  </symbol>
  <symbol viewBox="0 0 30 30" fill="none" xmlns="http://www.w3.org/2000/svg" id="webpack">
    <path d="M14.983.939L14.97.94c-.012 0-.024.004-.036.006a.461.461 0 0 0-.133.04c-.007.004-.015.003-.023.007L2.59 7.556a.468.468 0 0 0-.104.078c-.007.006-.01.014-.017.021a.466.466 0 0 0-.093.153.46.46 0 0 0-.032.16v14.064a.465.465 0 0 0 .086.265l.023.03a.473.473 0 0 0 .12.107l.003.001.002.002 12.182 7.029h.002l.002.001.002.001c.02.013.043.02.066.028.015.006.03.015.046.019h.001c.04.01.08.017.12.017H15a.48.48 0 0 0 .119-.016c.008-.002.015-.007.023-.01a.428.428 0 0 0 .086-.034l12.656-7.031.005-.005.014-.005a.472.472 0 0 0 .11-.1l.022-.03a.466.466 0 0 0 .065-.128l.007-.017a.466.466 0 0 0 .018-.124V7.969l-.002-.01a.47.47 0 0 0-.05-.195.461.461 0 0 0-.072-.105c-.007-.008-.011-.018-.019-.025a.462.462 0 0 0-.11-.08L15.216.99c-.02-.01-.04-.015-.06-.022-.012-.004-.022-.009-.034-.012a.472.472 0 0 0-.139-.018zm.486 1.238l11.155 5.784-4.585 2.293-6.57-3.504V2.177zm-.938.015V6.75l-6.56 3.499-4.174-2.277 10.734-5.78zM15 7.563l6.035 3.218L15 14l-6.035-3.22L15 7.563zm12.188 1.165v12.545L22.5 18.93v-7.86l4.688-2.342zM3.28 8.759l4.219 2.3v1.129a.469.469 0 1 0 .938 0v-.625l6.093 3.25v7.374l-6.094-3.249v-1.125a.469.469 0 1 0-.937 0v1.128l-4.219 2.3V8.76zm18.282 2.804v7.656c0 .023.009.043.012.066.005.034.008.067.02.099.011.028.029.051.044.077.016.026.03.051.05.074.023.024.051.042.079.061.018.014.032.032.054.042l4.83 2.415-11.183 6.213V14.813l6.094-3.25zM7.969 13.594a.469.469 0 0 0-.469.469v1.875a.469.469 0 1 0 .938 0v-1.875c0-.26-.21-.469-.47-.469zm12.238 5.577a.469.469 0 0 0-.372.688l.441.828a.469.469 0 1 0 .827-.442l-.441-.827a.468.468 0 0 0-.455-.247zm-12.236.58l6.56 3.5v5L3.77 22.043l4.202-2.29zm10.282.462a.469.469 0 0 0-.372.688l.441.828a.471.471 0 0 0 .635.193.47.47 0 0 0 .193-.635l-.441-.827a.47.47 0 0 0-.456-.247zM16.3 21.254a.469.469 0 0 0-.372.689l.442.826a.469.469 0 0 0 .826-.44l-.44-.829a.468.468 0 0 0-.456-.246z"
      fill="url(#paint0_linear)"></path>
    <defs>
      <linearGradient id="paint0_linear" x1="2.4" y1="1.2" x2="27.6" y2="30" gradientUnits="userSpaceOnUse">
        <stop stop-color="#27CBFF"></stop>
        <stop offset="1" stop-color="#6FCF97"></stop>
      </linearGradient>
    </defs>
  </symbol>
</svg>